<svg xmlns="http://www.w3.org/2000/svg" width="115" height="25" viewBox="903 2649 115 25"><g data-name="Group 50"><path d="M914.717 2649h1.562c.297.036.596.068.892.109 2.683.38 5.038 1.47 6.965 3.376 3.253 3.213 4.48 7.114 3.574 11.59-.776 3.823-3.006 6.639-6.43 8.503a10.9 10.9 0 0 1-2.305.922v-9.24h2.67l.404-3.128h-3.073c0-.832-.035-1.638.01-2.44.035-.594.36-.92.951-1.006.448-.066.908-.048 1.363-.059.274-.007.548-.002.824-.002v-2.813c-.587-.033-1.16-.092-1.735-.088-.599.004-1.214-.005-1.793.12-1.688.366-2.76 1.68-2.848 3.447-.042.845-.022 1.692-.03 2.538v.313h-2.663v3.134h2.645v9.704c-.043.007-.067.013-.09.014a4.254 4.254 0 0 1-.196.002c-1.805-.018-3.54-.372-5.166-1.163-3.865-1.88-6.223-4.935-7.053-9.156-.091-.46-.131-.931-.195-1.397v-1.562c.02-.16.041-.32.058-.48.295-2.701 1.33-5.08 3.154-7.095 1.929-2.133 4.316-3.462 7.157-3.954.447-.077.899-.127 1.348-.189Z" fill="#fff" fill-rule="evenodd" data-name="Path 156"/><g data-name="Group 49"><path d="M958 2660.717v1.563c-.02.16-.042.32-.06.48-.267 2.474-1.165 4.691-2.742 6.615-1.964 2.392-4.475 3.876-7.526 4.431-.462.084-.93.13-1.396.194h-1.563c-.063-.014-.125-.035-.188-.04-2.731-.223-5.157-1.204-7.206-3.02-3.207-2.842-4.634-6.434-4.261-10.698.232-2.663 1.279-5.015 3.065-7.008 2.44-2.722 5.504-4.141 9.162-4.23 2.365-.058 4.585.52 6.604 1.758 3.234 1.981 5.221 4.844 5.918 8.582.086.454.13.915.193 1.373Zm-12.506-6.434v.086c-1.027 0-2.052-.018-3.077.007-.833.02-1.63.214-2.334.687-1.175.788-1.68 1.954-1.707 3.313a198.92 198.92 0 0 0-.003 6.247c.009.815.219 1.596.683 2.284.79 1.175 1.956 1.68 3.314 1.708 2.083.041 4.167.033 6.25 0 1.033-.015 1.986-.331 2.762-1.06.86-.808 1.209-1.842 1.236-2.984.042-1.707.043-3.417.045-5.126a15.083 15.083 0 0 0-.087-1.51c-.194-1.94-1.58-3.348-3.522-3.509-1.182-.098-2.373-.098-3.56-.143Z" fill="#fff" fill-rule="evenodd" data-name="Path 157"/><path d="M939.633 2661.469c.032-1.066.037-2.157.104-3.243.057-.938.45-1.712 1.32-2.171.488-.259 1.025-.352 1.568-.353 2.033-.001 4.067-.023 6.098.04 1.506.048 2.484 1.023 2.524 2.53.058 2.153.056 4.31 0 6.461-.039 1.49-1.027 2.48-2.512 2.52a122.21 122.21 0 0 1-6.46 0c-1.52-.04-2.451-1.014-2.544-2.542-.065-1.07-.068-2.145-.098-3.242Zm5.855-3.625a3.65 3.65 0 0 0-3.65 3.648 3.652 3.652 0 0 0 3.66 3.661 3.65 3.65 0 0 0 3.65-3.649 3.649 3.649 0 0 0-3.66-3.66Zm3.81.703a.847.847 0 0 0 .849-.841.848.848 0 0 0-.855-.86.844.844 0 0 0-.847.865.843.843 0 0 0 .852.836Z" fill="#fff" fill-rule="evenodd" data-name="Path 158"/><path d="M947.867 2661.486a2.376 2.376 0 0 1-2.354 2.386 2.378 2.378 0 0 1-2.392-2.374 2.378 2.378 0 0 1 2.367-2.373 2.377 2.377 0 0 1 2.379 2.36Z" fill="#fff" fill-rule="evenodd" data-name="Path 159"/></g><path d="M988 2660.959v1.076c-.021.087-.052.17-.061.258-.038.331-.053.666-.103.995-.5 3.353-2.091 6.082-4.772 8.137-2.771 2.124-5.922 2.921-9.38 2.439-2.755-.385-5.134-1.574-7.064-3.57-2.95-3.046-4.107-6.707-3.434-10.898.52-3.236 2.14-5.855 4.734-7.842 2.457-1.88 5.25-2.71 8.342-2.53 1.105.064 2.18.268 3.225.624 4.616 1.576 7.84 5.6 8.402 10.47.033.281.074.56.111.84Zm-11.39-2.253c-.01-.025-.031-.055-.028-.083.023-.25-.111-.289-.327-.286-.831.01-1.663.008-2.493 0-.187-.001-.259.055-.259.25.005 3.329.005 6.657 0 9.985 0 .196.069.25.257.247.757-.008 1.516.002 2.273-.004.598-.006.541.111.542-.547.002-1.941.001-3.883.001-5.824 0-.137-.023-.276.146-.352.372-.167.724-.388 1.107-.514.593-.195 1.245-.139 1.502.524.06.155.092.33.093.497.006 1.957.003 3.915.004 5.873 0 .344.001.344.331.344h2.42c.318 0 .32 0 .32-.318 0-2.015.001-4.03-.002-6.045 0-.186-.013-.375-.047-.558-.424-2.29-2.229-3.764-4.788-3.416-.35.047-.694.148-1.052.227Zm-7.554 4.875c0 1.655.004 3.31-.005 4.966-.001.217.063.277.277.274a96.022 96.022 0 0 1 2.515 0c.21.002.288-.058.287-.275-.005-3.31-.005-6.621 0-9.933 0-.215-.076-.279-.287-.276-.83.01-1.661.012-2.492-.002-.236-.004-.301.07-.3.304.009 1.647.005 3.295.005 4.942Zm3.42-8.15a1.848 1.848 0 0 0-1.878-1.925c-1.068-.006-1.91.77-1.914 1.898-.005 1.227.981 1.92 1.9 1.91 1.065-.013 1.891-.824 1.892-1.884Z" fill="#fff" fill-rule="evenodd" data-name="Path 160"/><path d="M1004.72 2649h1.562c.418.054.837.093 1.252.164 2.374.404 4.472 1.395 6.264 3.003 2.155 1.93 3.502 4.324 4.01 7.179.081.454.13.914.192 1.371v1.563c-.037.298-.068.596-.11.892-.39 2.718-1.506 5.096-3.449 7.033-3.207 3.2-7.076 4.389-11.52 3.51-3.047-.6-5.514-2.218-7.384-4.694-2.062-2.728-2.864-5.821-2.417-9.21.36-2.74 1.54-5.102 3.48-7.07 1.869-1.897 4.12-3.087 6.747-3.55.455-.08.915-.128 1.373-.191Zm-5.245 7.35c-.266.387-.422 1.001-.397 1.523.046.942.466 1.687 1.213 2.262l-.038.066-1.21-.338c.099 1.432.839 2.355 2.21 2.795l-.015.06h-1.173c.2.592.531 1.05 1.002 1.411.474.363 1.021.538 1.668.595-1.269.948-2.634 1.32-4.2 1.193.087.061.121.092.161.114 2.54 1.443 5.189 1.632 7.8.35 3.056-1.5 4.488-4.11 4.577-7.482.005-.176.034-.297.187-.408.203-.146.391-.32.563-.503.224-.236.426-.492.673-.78l-1.523.407-.03-.063c.548-.37.94-.855 1.146-1.452-.529.19-1.053.376-1.577.563-.145.052-.245.015-.365-.092-.874-.77-1.88-.989-2.97-.572-1.067.407-1.684 1.216-1.828 2.356-.04.315-.005.64-.005.978-2.375-.17-4.324-1.176-5.869-2.983Z" fill="#fff" fill-rule="evenodd" data-name="Path 161"/></g></svg>