<svg xmlns="http://www.w3.org/2000/svg" width="750.455" height="387.142" viewBox="88.448 1014 750.455 387.142"><g data-name="Group 22"><path d="M116.8 1401.138c.036.027 695.42-.085 695.42-.085 22.893-48.833 22.853-72.691 25.46-100.681 14.383-154.707-102.14-178.492-136.277-184.943-104.523-19.753-56.951-117.486-329.321-99.15-24.963 1.68-83.822 15.249-104.107 24.04-14.228 6.16-67.83 33.725-83.558 80.355-4.967 14.717-6.159 31.332-1.15 49.773 17.725 65.257-28.488 61.506-62.256 92.605-45.071 41.503-40.36 109.378-4.21 138.086Z" fill="#eef8ff" fill-rule="evenodd" data-name="Path 8"/><g data-name="Group 3"><path d="M531.024 1399.696h.095a1 1 0 0 0 1-1.023l-1.517-65.751-4.469-.522 3.812 66.277a1.081 1.081 0 0 0 1.079 1.02Z" fill="#a1d6ce" fill-rule="evenodd" data-name="Path 9"/></g><g data-name="Group 4"><path d="M557.064 1399.696h.095a1 1 0 0 0 1-1.023l-1.517-65.751-4.468-.522 3.81 66.277a1.082 1.082 0 0 0 1.08 1.02Z" fill="#8ac1b6" fill-rule="evenodd" data-name="Path 10"/></g><g data-name="Group 5"><path d="M485.207 1399.696h-.095a1 1 0 0 1-1-1.023l1.517-65.751 4.468-.522-3.81 66.277a1.081 1.081 0 0 1-1.08 1.02Z" fill="#a1d6ce" fill-rule="evenodd" data-name="Path 11"/></g><path d="M560.025 1328.844v-45.056c0-7.928-6.427-14.355-14.355-14.355h-32.462c-7.927 0-14.354 6.427-14.354 14.355v46.777l61.17-1.721Z" fill="#a1d6ce" fill-rule="evenodd" data-name="Path 12"/><path d="M556.468 1335.957h-63.43v-7.113h66.987v3.556a3.557 3.557 0 0 1-3.557 3.557z" fill="#8ac1b6" fill-rule="evenodd" data-name="Rectangle 1"/><path d="M532.575 1335.957h-46.68a3.557 3.557 0 0 1-3.556-3.557 3.557 3.557 0 0 1 3.557-3.556h46.679a3.557 3.557 0 0 1 3.556 3.556 3.557 3.557 0 0 1-3.556 3.557z" fill="#b5e2de" fill-rule="evenodd" data-name="Rectangle 2"/><path d="M407.654 1091.706h187.135v161.543H407.654v-161.543z" fill="#51c4c2" fill-rule="evenodd" data-name="Rectangle 3"/><path d="M411.216 1094.398h179.935v155.63H411.216v-155.63z" fill="#dcefff" fill-rule="evenodd" data-name="Rectangle 4"/><path d="M474.105 1162.111h-39.428v-49.235l6.686-6.027h32.742v55.262Z" fill="#fff" fill-rule="evenodd" data-name="Path 13"/><path d="M434.677 1112.876h6.47l.216-6.027-6.686 6.027Z" fill="#bae8e3" fill-rule="evenodd" data-name="Path 14"/><path d="M448.079 1111.642h12.624v.6H448.08v-.6z" fill="#bae8e3" fill-rule="evenodd" data-name="Rectangle 5"/><path d="M445.107 1113.445h18.568v.601h-18.568v-.6z" fill="#bae8e3" fill-rule="evenodd" data-name="Rectangle 6"/><path d="M439.344 1125.028h30.832v.773h-30.832v-.773z" fill="#bae8e3" fill-rule="evenodd" data-name="Rectangle 7"/><path d="M439.344 1127.376h30.832v.773h-30.832v-.773z" fill="#bae8e3" fill-rule="evenodd" data-name="Rectangle 8"/><path d="M439.344 1129.723h30.832v.773h-30.832v-.773z" fill="#bae8e3" fill-rule="evenodd" data-name="Rectangle 9"/><path d="M439.344 1132.07h30.832v.774h-30.832v-.773z" fill="#bae8e3" fill-rule="evenodd" data-name="Rectangle 10"/><path d="M439.344 1157.19h30.832v.774h-30.832v-.773z" fill="#bae8e3" fill-rule="evenodd" data-name="Rectangle 11"/><path d="M519.633 1230.42h-39.429v-49.235l6.686-6.027h32.743v55.262Z" fill="#fff" fill-rule="evenodd" data-name="Path 15"/><path d="M480.204 1181.185h6.471l.215-6.027-6.686 6.027Z" fill="#b5e2de" fill-rule="evenodd" data-name="Path 16"/><path d="M493.606 1179.95h12.625v.601h-12.625v-.6z" fill="#bae8e3" fill-rule="evenodd" data-name="Rectangle 12"/><path d="M490.634 1181.754h18.569v.6h-18.569v-.6z" fill="#bae8e3" fill-rule="evenodd" data-name="Rectangle 13"/><path d="M484.872 1193.337h30.831v.773h-30.831v-.773z" fill="#bae8e3" fill-rule="evenodd" data-name="Rectangle 14"/><path d="M484.872 1195.684h30.831v.773h-30.831v-.773z" fill="#bae8e3" fill-rule="evenodd" data-name="Rectangle 15"/><path d="M484.872 1198.032h30.831v.773h-30.831v-.773z" fill="#bae8e3" fill-rule="evenodd" data-name="Rectangle 16"/><path d="M484.872 1200.38h30.831v.772h-30.831v-.773z" fill="#bae8e3" fill-rule="evenodd" data-name="Rectangle 17"/><path d="M484.872 1207.602h30.831v.773h-30.831v-.773z" fill="#bae8e3" fill-rule="evenodd" data-name="Rectangle 18"/><path d="M484.872 1209.95h30.831v.772h-30.831v-.773z" fill="#bae8e3" fill-rule="evenodd" data-name="Rectangle 19"/><path d="M484.872 1212.672h30.831v.773h-30.831v-.773z" fill="#bae8e3" fill-rule="evenodd" data-name="Rectangle 20"/><path d="M520.11 1106.85h21.773v19.194H520.11v-19.195z" fill="#b5e2de" fill-rule="evenodd" data-name="Rectangle 21"/><path d="M530.044 1109.134a.953.953 0 1 1 1.906 0 .953.953 0 0 1-1.906 0Z" fill="#51c4c2" fill-rule="evenodd" data-name="Path 17"/><path d="m519.469 1133.59 21.719-1.515 1.337 19.147-21.72 1.517-1.336-19.148z" fill="#fff" fill-rule="evenodd" data-name="Rectangle 22"/><path d="M529.62 1136.366a.953.953 0 1 1 1.9-.133.953.953 0 0 1-1.9.133Z" fill="#51c4c2" fill-rule="evenodd" data-name="Path 18"/><path d="m447.12 1204.305 21.719-1.516 1.337 19.148-21.72 1.516-1.336-19.148z" fill="#fff" fill-rule="evenodd" data-name="Rectangle 23"/><path d="M457.27 1207.08a.954.954 0 1 1 1.903-.132.954.954 0 0 1-1.903.132Z" fill="#51c4c2" fill-rule="evenodd" data-name="Path 19"/><path d="m419.741 1216.788 21.771-.224.197 19.194-21.771.223-.197-19.193z" fill="#fff" fill-rule="evenodd" data-name="Rectangle 24"/><path d="M429.709 1220.16a.953.953 0 1 1 1.906-.019.953.953 0 0 1-1.906.02Z" fill="#51c4c2" fill-rule="evenodd" data-name="Path 20"/><path d="m552.718 1143.669 21.433 3.83-3.377 18.895-21.432-3.83 3.376-18.895z" fill="#eef6ff" fill-rule="evenodd" data-name="Rectangle 25"/><path d="M562.16 1147.998a.829.829 0 1 1 1.632.291.829.829 0 0 1-1.631-.291Z" fill="#51c4c2" fill-rule="evenodd" data-name="Path 21"/><path d="m485.624 1134.037 21.646-2.343 2.066 19.083-21.646 2.343-2.066-19.083z" fill="#b5e2de" fill-rule="evenodd" data-name="Rectangle 26"/><path d="M495.903 1135.54a.829.829 0 1 1 1.648-.178.829.829 0 0 1-1.648.178Z" fill="#51c4c2" fill-rule="evenodd" data-name="Path 22"/><path d="m429.464 1181.607 21.293-4.54 4.003 18.772-21.293 4.54-4.003-18.772z" fill="#bae8e3" fill-rule="evenodd" data-name="Rectangle 27"/><path d="M440.2 1182.568a.83.83 0 1 1 .903-1.39.83.83 0 0 1-.903 1.39Z" fill="#51c4c2" fill-rule="evenodd" data-name="Path 23"/><path d="M507.84 1126.044H487.12v-13.923l5.737-5.272h14.985v19.195Z" fill="#fff" fill-rule="evenodd" data-name="Path 24"/><path d="M487.008 1112.12h5.66l.188-5.27-5.848 5.27Z" fill="#bae8e3" fill-rule="evenodd" data-name="Path 25"/><path d="M497.556 1108.625a.681.681 0 1 1 1.363 0 .681.681 0 0 1-1.363 0Z" fill="#51c4c2" fill-rule="evenodd" data-name="Path 26"/><path d="M568.388 1240.017h-20.723v-13.923l5.738-5.271h14.985v19.194Z" fill="#fff" fill-rule="evenodd" data-name="Path 27"/><path d="M547.555 1226.094h5.66l.188-5.271-5.848 5.27Z" fill="#bae8e3" fill-rule="evenodd" data-name="Path 28"/><path d="M558.103 1222.598a.681.681 0 1 1 1.362 0 .681.681 0 0 1-1.362 0Z" fill="#51c4c2" fill-rule="evenodd" data-name="Path 29"/><path d="M577.84 1212.386h-20.722v-13.923l5.737-5.271h14.985v19.194Z" fill="#fff" fill-rule="evenodd" data-name="Path 30"/><path d="M557.008 1198.463h5.66l.188-5.271-5.848 5.271Z" fill="#bae8e3" fill-rule="evenodd" data-name="Path 31"/><path d="M567.556 1194.967a.68.68 0 1 1 1.361 0 .68.68 0 0 1-1.361 0Z" fill="#51c4c2" fill-rule="evenodd" data-name="Path 32"/><g data-name="Group 6"><path d="M550.494 1212.386h-20.722v-13.923l5.737-5.271h14.985v19.194Z" fill="#bae8e3" fill-rule="evenodd" data-name="Path 33"/><path d="M529.661 1198.463h5.66l.188-5.271-5.848 5.271Z" fill="#a1d6ce" fill-rule="evenodd" data-name="Path 34"/></g><path d="M540.209 1194.967a.68.68 0 1 1 1.362 0 .68.68 0 0 1-1.362 0Z" fill="#51c4c2" fill-rule="evenodd" data-name="Path 35"/><g data-name="Group 7"><path d="M583.689 1121.239h-20.723v-13.923l5.737-5.272h14.986v19.195Z" fill="#bae8e3" fill-rule="evenodd" data-name="Path 36"/><path d="M562.855 1107.316h5.66l.188-5.272-5.848 5.272Z" fill="#a1d6ce" fill-rule="evenodd" data-name="Path 37"/></g><path d="M573.403 1103.82a.68.68 0 1 1 1.362-.001.68.68 0 0 1-1.362.001Z" fill="#51c4c2" fill-rule="evenodd" data-name="Path 38"/><path d="M347.99 1043.174h22.14a11.93 11.93 0 0 1 11.929 11.93v20.766a11.93 11.93 0 0 1-11.93 11.929h-22.138a11.93 11.93 0 0 1-11.93-11.93v-20.765a11.93 11.93 0 0 1 11.93-11.93z" fill="#a1d6ce" fill-rule="evenodd" data-name="Rectangle 28"/><path d="M348.95 1045.108h20.22a10.896 10.896 0 0 1 10.896 10.895v18.967a10.896 10.896 0 0 1-10.896 10.896h-20.22a10.896 10.896 0 0 1-10.896-10.896v-18.967a10.896 10.896 0 0 1 10.896-10.895z" fill="#bae8e3" fill-rule="evenodd" data-name="Rectangle 29"/><g data-name="Group 10"><g data-name="Group 8"><path d="M358.107 1049.18a.953.953 0 1 1 1.907.001.953.953 0 0 1-1.907 0Z" fill="#a1d6ce" fill-rule="evenodd" data-name="Path 39"/><path d="M365.796 1050.527a.953.953 0 1 1 1.666.926.953.953 0 0 1-1.666-.926Z" fill="#a1d6ce" fill-rule="evenodd" data-name="Path 40"/><path d="M372.382 1055.76a.953.953 0 1 1 1.033 1.601.953.953 0 0 1-1.033-1.6Z" fill="#a1d6ce" fill-rule="evenodd" data-name="Path 41"/><path d="M375.645 1063.86a.953.953 0 1 1 0 1.905.953.953 0 0 1 0-1.905Z" fill="#a1d6ce" fill-rule="evenodd" data-name="Path 42"/><path d="M373.979 1073.26a.952.952 0 1 1-1.346 1.347.952.952 0 0 1 1.346-1.348Z" fill="#a1d6ce" fill-rule="evenodd" data-name="Path 43"/><path d="M367.996 1079.258a.953.953 0 1 1-1.347 1.348.953.953 0 0 1 1.347-1.348Z" fill="#a1d6ce" fill-rule="evenodd" data-name="Path 44"/><path d="M358.107 1082.35a.953.953 0 1 1 1.906 0 .953.953 0 0 1-1.906 0Z" fill="#a1d6ce" fill-rule="evenodd" data-name="Path 45"/></g><g data-name="Group 9"><path d="M352.295 1050.527a.953.953 0 1 0-1.666.926.953.953 0 0 0 1.666-.926Z" fill="#a1d6ce" fill-rule="evenodd" data-name="Path 46"/><path d="M345.708 1055.76a.953.953 0 1 0-1.033 1.602.953.953 0 0 0 1.033-1.602Z" fill="#a1d6ce" fill-rule="evenodd" data-name="Path 47"/><path d="M342.445 1063.86a.953.953 0 1 0 0 1.906.953.953 0 0 0 0-1.906Z" fill="#a1d6ce" fill-rule="evenodd" data-name="Path 48"/><path d="M344.11 1073.26a.953.953 0 1 0 1.35 1.347.953.953 0 0 0-1.35-1.348Z" fill="#a1d6ce" fill-rule="evenodd" data-name="Path 49"/><path d="M350.094 1079.258a.952.952 0 1 0 1.346 1.348.952.952 0 0 0-1.346-1.348Z" fill="#a1d6ce" fill-rule="evenodd" data-name="Path 50"/></g></g><g data-name="Group 13"><path d="M358.803 1064.813a.953.953 0 1 1 1.906 0 .953.953 0 0 1-1.906 0Z" fill="#a1d6ce" fill-rule="evenodd" data-name="Path 51"/><g data-name="Group 11"><path d="M359.626 1052.91h.26v11.902h-.26v-11.903z" fill="#a1d6ce" fill-rule="evenodd" data-name="Rectangle 30"/></g><g data-name="Group 12"><path d="m359.395 1064.49 6.31-4.955.482.613-6.31 4.955-.482-.614z" fill="#a1d6ce" fill-rule="evenodd" data-name="Rectangle 31"/></g></g><path d="M621.424 1397.344c-.188 2.56-3.8 2.588-7.898 2.112-4.1-.475-3.01.562-8.748.642-5.738.08-7.717-1.817-7.994-2.637-.248-.728 2.516-1.34 5.473-2.06.372-.089.745-.183 1.118-.277 3.335-.848 5.542-3.343 8.394-5.522 2.702-2.064 6.187-9.533 6.187-9.533l7.84-.354s-3.302 6.695-4.542 9.582c-.73 1.697-.42 3.784-.102 5.384.17.871.339 1.762.272 2.663Z" fill="#ffb27d" fill-rule="evenodd" data-name="Path 52"/><path d="M613.526 1399.456c-4.1-.475-3.01.562-8.748.642-5.738.08-7.717-1.817-7.994-2.637-.248-.727 2.516-1.34 5.473-2.06l.035.055s3.695 1.983 8.42 1.507c3.853-.386 7.783-1.993 10.44-2.282.17.871.339 1.762.272 2.663-.188 2.56-3.8 2.588-7.898 2.112Z" fill="#233862" fill-rule="evenodd" data-name="Path 53"/><path d="M675.565 1397.875c-.185 2.56-3.797 2.591-7.896 2.12-4.099-.472-3.008.565-8.747.65-5.738.086-7.718-1.809-7.997-2.628-.248-.728 2.515-1.343 5.471-2.066.372-.09.745-.184 1.118-.278 3.334-.851 5.539-3.349 8.389-5.53 2.7-2.067.002-14.302.002-14.302l8.623-.84s-.414 10.303-.408 14.986c.002 1.848.852 3.625 1.17 5.226.172.87.342 1.76.275 2.662Z" fill="#ffb27d" fill-rule="evenodd" data-name="Path 54"/><path d="M667.669 1399.995c-4.099-.472-3.008.565-8.747.65-5.738.086-7.718-1.809-7.997-2.628-.248-.728 2.515-1.343 5.471-2.066l.036.054s3.697 1.98 8.421 1.5c3.852-.39 7.78-2.002 10.438-2.293.17.87.341 1.761.274 2.663-.185 2.56-3.797 2.591-7.896 2.12Z" fill="#233862" fill-rule="evenodd" data-name="Path 55"/><path d="M650.402 1186.414c-1.485-6.105.667-8.948 2.608-10.461.92-2.248 1.972-3.867 3.046-4.478 1.96-1.114 4.308-1.235 5.951-1.138-.423-.437-1.255-.595-1.255-.595 1.018-.152 3.292.858 3.292.858 14.168-5.46 16.395 15.402 16.097 20.249-.295 4.846-.256 10.554 7.115 14.373 14.064 7.285-4.675 34.742-4.675 34.742.359-3.916-17.713-24.584-27.14-30.774-2.295-3.38-3.111-9.348-3.172-9.818.395 4.733 1.205 7.388 1.929 8.882-4.297-3.955-4.934-13.452-3.796-21.84Z" fill="#a9453d" fill-rule="evenodd" data-name="Path 56"/><path d="M655.999 1209.497c-.047.022 4.552 2.41 8.011 1.464 3.255-.888 5.38-5.107 5.336-5.116-1.378-.274-1.775-2.168-1.746-10.306l-.623.123-10.476 2.074s.239 3.297.246 6.402c.007 2.608-.152 5.081-.748 5.36Z" fill="#ffb27d" fill-rule="evenodd" data-name="Path 57"/><path d="M656.502 1197.736s.238 3.297.245 6.403c5.863-.166 8.96-5.513 10.23-8.477l-10.475 2.074Z" fill="#ed975d" fill-rule="evenodd" data-name="Path 58"/><path d="M613.88 1384.219a2.57 2.57 0 0 0 2.33 3.348l4.092.191 4.33.133a3.474 3.474 0 0 0 2.803-1.279c3.456-4.24 14.095-18.372 20.548-38.905.182-.576.373-1.159.576-1.749 4.262-12.427 13.097-28.025 17.753-42.144a234.205 234.205 0 0 0 2.558-8.262c3.431-11.922 4.425-19.75 5.341-28.113l-33.621.269s-7.078 55.014-26.71 116.51Z" fill="#2f2e41" fill-rule="evenodd" data-name="Path 59"/><path d="M645.296 1248.389c.085 15.999-2.347 22.863-2.347 22.863s14.396 7.313 31.504 1.93c.202-.064 14.167-3.25 14.167-3.25-.287-.648-2.833-11.43-3.112-12.024-3.612-7.757-6.355-11.159-6.783-13.544-.795-4.452-.812-9.059-.416-13.404 1.043-11.501 4.148-21.05 4.148-21.05-4.661-1.06-9.027-2.923-13.879-4.743-1.116 1.39-4.528 2.844-7.488 2.777-3.407-.075-4.512-1.534-4.336-3.126-3.63 2.02-6.53 3.93-6.53 3.93-3.086 5.36-9.346 10.568-9.799 18.792-.112 2.022 4.869 20.4 4.871 20.849Z" fill="#fff" fill-rule="evenodd" data-name="Path 60"/><path d="M674.21 1250.172c1.47 2.08 4.288 14.723 11.298 16.312-3.612-9.01-6.355-12.961-6.783-15.732-.796-5.171-.812-10.522-.416-15.57-2.347-4.112-4.098-6.932-4.098-6.932-.185-.665-3.73-11.626-4.866-1.829-1.133 9.8 3.224 21.424 4.866 23.751Z" fill="#5f9aa8" fill-rule="evenodd" data-name="Path 61"/><path d="M654.544 1200.677s13.87.229 13.879-8.41c.009-8.64 1.806-14.429-7.05-14.94-8.854-.511-10.578 2.783-11.282 5.666-.705 2.883.846 17.401 4.453 17.684Z" fill="#ffb27d" fill-rule="evenodd" data-name="Path 62"/><path d="M655.057 1177.115s3.797 10.136 9.625 11.634c5.827 1.499 8.355-.063 8.355-.063s-4.47-3.55-5.398-9.75c0 0-9.718-6.644-12.582-1.82Z" fill="#a9453d" fill-rule="evenodd" data-name="Path 63"/><path d="M655.998 1177.938s-2.836 2.263-3.527 4.463c-.691 2.2-1.002 6.729-2.323 6.575 0 0-2.86-6.89.355-10.786 3.409-4.133 5.495-.252 5.495-.252Z" fill="#a9453d" fill-rule="evenodd" data-name="Path 64"/><path d="m632.721 1259.493-6.55 19.972 3.736 1.498 10.831-17.645-8.017-3.825Z" fill="#ffb27d" fill-rule="evenodd" data-name="Path 65"/><path d="M650.382 1207.571s-7.724 3.065-9.959 7.844c-2.236 4.778-5.62 36.831-6.968 40.123-1.349 3.292-2.362 5.898-2.362 5.898s3.894 3.281 7.81 3.523c3.917.242 11.48-57.388 11.48-57.388Z" fill="#2f2e41" fill-rule="evenodd" data-name="Path 66"/><path d="M656.755 1204.818s-8.025 19.823-8.26 23.835c-.237 4.011-.944 65.604-.944 65.604s.472 2.831-4.957 1.651c-5.427-1.18-6.843-2.36-6.843-2.36s5.192-37.993 3.776-51.208c-1.416-13.216 10.855-34.769 10.855-34.769l6.373-2.753Z" fill="#2f2e41" fill-rule="evenodd" data-name="Path 67"/><path d="m620.302 1387.758 4.7.144a2.718 2.718 0 0 0 2.182-.984c3.16-3.827 14.18-18.153 20.8-39.211a71.07 71.07 0 0 1 .575-1.75c4.261-12.426 13.097-28.025 17.753-42.144.74-2.248 1.406-4.365 2.004-6.369.191-.642.377-1.272.554-1.892l-4.95-3.757s-14.866 24.07-19.467 46.722c-3.998 19.677-20.008 43.353-24.151 49.241Z" fill="#252535" fill-rule="evenodd" data-name="Path 68"/><path d="M663.403 1340.627c-.081 10.422.413 33.65 1.681 45.004a2.05 2.05 0 0 0 2.04 1.823h3.51c1.477 0 2.584-.01 3.319-.021a1.348 1.348 0 0 0 1.3-1.09c3.49-17.752 5.986-32.5 7.814-45.243 1.53-10.667 2.888-19.812 3.934-27.684 1.053-7.922 1.784-14.556 2.046-20.16.04-.883.07-1.742.087-2.575.017-.838.021-1.652.015-2.442l-29.05-2.832c.366 19.301 3.35 48.818 3.304 55.22Z" fill="#2f2e41" fill-rule="evenodd" data-name="Path 69"/><path d="M670.633 1387.454c1.328 0 2.356-.009 3.084-.018a1.637 1.637 0 0 0 1.582-1.322c3.465-17.65 5.948-32.327 7.768-45.015 1.53-10.666 2.888-19.811 3.934-27.683 1.053-7.922 1.784-14.556 2.046-20.16l-10.66 6.27s6.804 2.4 4.209 20.57c-2.596 18.171-8.35 64.785-11.963 67.358Z" fill="#252535" fill-rule="evenodd" data-name="Path 70"/><path d="M669.261 1293.076s2.046 7.394 9.126 6.45 17.146-5.192 17.146-5.192-3.025-9.56-6.786-22.118c-4.555-15.205-10.193-34.806-12.85-47.17-.745-3.464-1.255-6.357-1.445-8.429l-5.873-11.395s-8.757 19.655-9.23 24.61c-.47 4.956 9.912 63.244 9.912 63.244Z" fill="#2f2e41" fill-rule="evenodd" data-name="Path 71"/><path d="m676.33 1229.094-7.751-23.872c.02.01 9.79 2.906 14.705 5.39 0 0 3.071 3.96 4.972 13.096 0 0 2.008 21.936-2.476 29.959 0 0-14.158 2.832-36.814-4.956v-5.191s24.779 1.298 29.853 1.887l-2.489-16.313Z" fill="#ffb27d" fill-rule="evenodd" data-name="Path 72"/><path d="M669.575 1240.216c.315 8.024 2.204 23.598 19.037 31.936.045.02.09.045.134.064-4.555-15.205-10.192-34.806-12.849-47.17-3.092 4.621-6.494 10.752-6.322 15.17Z" fill="#252535" fill-rule="evenodd" data-name="Path 73"/><path d="M668.578 1205.222s14.37 1.012 17.831 8.72c3.461 7.71 4.563 33.353.158 40.905 0 0-6.065 1.727-16.791-.279l-.397-.075s-3.422-8.378-.354-10.03c0 0 9.046.472 8.102-2.517-.943-2.989-8.549-36.724-8.549-36.724Z" fill="#2f2e41" fill-rule="evenodd" data-name="Path 74"/><g data-name="Group 14"><path d="m632.55 1246.728.423 1.36 23.58-7.335s.314-.358.159-.834c-.172-.526-.582-.527-.582-.527l-23.58 7.336Z" fill="#a9453d" fill-rule="evenodd" data-name="Path 75"/><path d="m630.844 1248.013 1.705-1.286.423 1.36-2.128-.074Z" fill="#a9453d" fill-rule="evenodd" data-name="Path 76"/></g><path d="M627.101 1278.919s-5.982 3.305-6.769 5.824c-.787 2.519-.246 7.792.704 7.713.949-.079 2.366-5.667 3.152-6.06.788-.394 1.89-1.573 1.89-.708s-.787 2.44-.394 2.675c.394.237 1.653-2.203 2.519-2.675.866-.473 1.23-4.365 2.07-5.41.842-1.044-3.172-1.36-3.172-1.36Z" fill="#ffb27d" fill-rule="evenodd" data-name="Path 77"/><path d="M648.966 1243.52s-5.349-3.295-7.593-2.788c-2.244.507-7.963 4.649-5.212 5.546 2.75.897 4.978-.044 6.036.607 1.058.652 1.839 1.842 6.77 1.826 4.93-.016 0-5.191 0-5.191Z" fill="#ffb27d" fill-rule="evenodd" data-name="Path 78"/><path d="M228.27 1208.125c-.897-1.73 19.564-7.958 19.888 9.11 0 0 38.33-.941 20.028-22.305-6.336-7.396-5.684-13.511-5.494-19.204.193-5.693-3.946-22.238-18.133-20.572 0 0-3.716-1.512-8.352.893-10.545 5.471-34.166 58.372-7.937 52.078Z" fill="#0f253a" fill-rule="evenodd" data-name="Path 79"/><path d="M290.933 1227.207s2.495-3.798 4.506-3.873c2.01-.074 5.734-1.117 5.437-.372-.299.745-2.607.82-2.83 1.266-.224.447 3.425 1.117 4.468 1.192 1.043.074 3.5 0 3.426.521-.075.521-4.43 2.68-7.503 2.383-3.073-.298-6.87.894-6.87.894l-.634-2.011Z" fill="#ffb27d" fill-rule="evenodd" data-name="Path 80"/><path d="M254.85 1228.436s1.357 2.685 3.817 5.77c2.965 3.714 7.536 8.004 13.275 8.85 2.742.405 5.423-.185 7.887-1.28l.01-.002c6.97-3.095 12.211-10.21 12.211-10.21 1.23-3.352-.781-5.624-.781-5.624s-14.076 3.166-15.417 2.496c-1.34-.67-9.16-23.198-11.02-26.029-1.864-2.83-8.21-4.3-8.21-4.3l-1.771 30.329Z" fill="#2f2e41" fill-rule="evenodd" data-name="Path 81"/><path d="M258.667 1234.207c2.965 3.713 7.536 8.003 13.275 8.85 2.742.404 5.423-.186 7.887-1.28-.272.035-7.234.895-10.01-4.07-2.83-5.064-5.89-13.107-10.095-10.426-1.815 1.157-1.734 4.032-1.057 6.926Z" fill="#252535" fill-rule="evenodd" data-name="Path 82"/><path d="M202.338 1380.373s-4.295 3.92-3.457 6.705c.838 2.785 4.714 4.641 5.237 8.045.524 3.404 2.62 5.26 4.505 5.26h8.99s1.388-2.394-1.965-3.116c-3.352-.722-4.616-4.723-4.406-8.436.21-3.713-.314-8.664-.314-8.664l-7.124-1.65-1.466 1.856Z" fill="#252535" fill-rule="evenodd" data-name="Path 83"/><path d="M238.69 1382.037s-1.545 16.605.34 17.533l24.132-.05s0-2.784-3.876-3.403c-3.876-.619-10.685-2.888-11.838-7.942-1.152-5.055-8.758-6.138-8.758-6.138Z" fill="#252535" fill-rule="evenodd" data-name="Path 84"/><path d="M221.494 1262.911c4.965-11.136 8.004-14.333 7.424-17.79-.432-2.572 1.315-47.965 1.315-47.965.589-.183 1.77-.346 2.416-.49 2.037-.452 3.723-1.883 4.424-3.848.845-2.367 1.517-5.862 1.502-10.242l.636.125 10.695 2.119s-.243 3.365-.25 6.536v.08a6.153 6.153 0 0 0 4.439 5.948c1.351.39 2.527.723 2.527.723s3.927 11.213 4.677 22.732c.75 11.519-7.142 16.523.06 39.542 7.352 23.509-42.609 8.684-39.865 2.53Z" fill="#ffb27d" fill-rule="evenodd" data-name="Path 85"/><path d="M249.906 1184.82s-.243 3.365-.25 6.537c-5.985-.17-9.149-5.63-10.445-8.656l10.695 2.119Z" fill="#e8945b" fill-rule="evenodd" data-name="Path 86"/><path d="M251.905 1187.822s-14.16.234-14.17-8.587c-.01-8.821-1.844-14.731 7.196-15.254 9.041-.522 10.801 2.842 11.521 5.786.72 2.943-.864 17.767-4.547 18.055Z" fill="#ffb27d" fill-rule="evenodd" data-name="Path 87"/><path d="M251.381 1163.765s-3.877 10.35-9.827 11.879c-5.95 1.53-8.532-.064-8.532-.064s4.564-3.626 5.512-9.955c0 0 9.922-6.785 12.847-1.86Z" fill="#0f253a" fill-rule="evenodd" data-name="Path 88"/><path d="M250.42 1164.605s2.875 1.075 4.058 3.172c1.157 2.05 2.143 4.766 1.915 8.098 0 0 2.92-7.034-.362-11.013-3.481-4.219-5.611-.257-5.611-.257Z" fill="#0f253a" fill-rule="evenodd" data-name="Path 89"/><path d="M248.824 1182.35s.977 1.286 2.932 1.193c1.575-.075 2.182-1.44 2.182-1.44s-2.893-.696-5.114.247Z" fill="#ebf3fa" fill-rule="evenodd" data-name="Path 90"/><path d="M220.127 1217.236s-.36 5.07 0 11.153c.239 4.033 4.318 9.435 4.897 10.77 1.452 3.353 3.09 3.897 3.09 3.897l12.67 3.106 4.455 1.09 14.049-4.196s6.398-17.86 3.83-27.914c-2.57-10.054-6.496-17.035-6.496-17.035s-11.463 11.224-26.39-.952l-10.105 20.08Z" fill="#2f2e41" fill-rule="evenodd" data-name="Path 91"/><path d="M223.835 1230.035c.24 4.033.61 7.789 1.19 9.125 1.451 3.351 3.089 3.896 3.089 3.896l12.67 3.106 5.503-1.618s-18.37-2.784-16.334-18.588l-6.118 4.08Z" fill="#f2ccaa" fill-rule="evenodd" data-name="Path 92"/><path d="M258.394 1245.767s6.957 21.655 7.404 29.028c.447 7.373-13.299 104.739-13.852 108.136-.521 3.202-4.497 5.244-4.497 5.244s-1.83 1.079-4.44.341c-3.621-1.022-4.766-2.247-4.766-2.247s-5.415-69.44-2.064-94.245c3.351-24.806 3.39-46.257 3.39-46.257h18.825Z" fill="#252535" fill-rule="evenodd" data-name="Path 93"/><path d="M228.918 1245.122s-10.613 14.239-11.602 23.865c-.99 9.625-1.552 43.436-3.66 52.82-2.107 9.383-9.852 27.442-9.852 56.71 0 0 .805 1.677 3.29 2.57.795.287 1.86.564 2.894.8a4.55 4.55 0 0 0 5.089-2.414c5.235-10.542 21.913-44.541 22.768-51.599.605-4.995 5.871-38.05 17.358-57.447 2.757-4.656-1.693-23.175-1.693-23.175l-24.592-2.13Z" fill="#2f2e41" fill-rule="evenodd" data-name="Path 94"/><path d="M249.139 1182.586s.244 1.04 2.83.879c0 0 2.171-.134 2.105-1.277 0 0-2.105-.812-4.935.398Z" fill="#fff" fill-rule="evenodd" data-name="Path 95"/><path d="M259.506 1242.424s-2.793 2.21-8.342 2.321c-6.627.134-23.05-1.69-23.05-1.69s-.729 2.04-.7 4.192c0 0 20.058 5.06 31.679.739 0 0 1.498-2.82.413-5.562Z" fill="#306868" fill-rule="evenodd" data-name="Path 96"/><g data-name="Group 15"><path d="M249.73 1247.034c0-1.887 1.356-3.423 3.024-3.423s3.024 1.536 3.024 3.423-1.356 3.423-3.024 3.423-3.024-1.536-3.024-3.423Zm1.003 0c0 1.335.907 2.42 2.021 2.42 1.115 0 2.022-1.085 2.022-2.42s-.907-2.42-2.022-2.42c-1.114 0-2.021 1.085-2.021 2.42Z" fill="#fff" fill-rule="evenodd" data-name="Path 97"/></g><path d="m227.072 1264.235-20.549-17.893 24.493-28.128 20.549 17.893-24.493 28.128z" fill="#51c4c2" fill-rule="evenodd" data-name="Rectangle 32"/><path d="M232.75 1246.407s7.529.88 7.505 2.668c-.023 1.787-1.876 5.458-2.806 5.622-.93.163-6.127-4.965-6.127-4.965l1.428-3.325Z" fill="#ffb27d" fill-rule="evenodd" data-name="Path 98"/><path d="M230.232 1197.155s-10.052.704-13.905 10.071c-3.853 9.367-11.164 25.094-11.164 27.74 0 2.646 4.084 10.801 26.016 15.49 0 0 2.268-2.386 2.131-4.273 0 0-13.69-11.76-13.654-13.134.07-2.6 2.244-6.031 14.264-18.055 3.268-3.269-3.688-17.84-3.688-17.84Z" fill="#2f2e41" fill-rule="evenodd" data-name="Path 99"/><g data-name="Group 16"><path d="M341.29 1399.872h-.095a1 1 0 0 1-1-1.024l1.517-65.75 4.468-.522-3.81 66.277a1.08 1.08 0 0 1-1.08 1.019Z" fill="#a1d6ce" fill-rule="evenodd" data-name="Path 100"/></g><g data-name="Group 17"><path d="M315.25 1399.872h-.096a1 1 0 0 1-1-1.024l1.517-65.75 4.469-.522-3.811 66.277a1.08 1.08 0 0 1-1.08 1.019Z" fill="#8ac1b6" fill-rule="evenodd" data-name="Path 101"/></g><g data-name="Group 18"><path d="M387.106 1399.872h.095a1 1 0 0 0 1-1.024l-1.516-65.75-4.469-.522 3.81 66.277a1.08 1.08 0 0 0 1.08 1.019Z" fill="#a1d6ce" fill-rule="evenodd" data-name="Path 102"/></g><path d="M312.289 1329.02v-45.056c0-7.928 6.427-14.355 14.355-14.355h32.462c7.927 0 14.354 6.427 14.354 14.355v46.777l-61.171-1.722Z" fill="#a1d6ce" fill-rule="evenodd" data-name="Path 103"/><path d="M312.289 1329.02h66.987v7.113h-63.43a3.557 3.557 0 0 1-3.557-3.557v-3.557z" fill="#8ac1b6" fill-rule="evenodd" data-name="Rectangle 33"/><path d="M339.739 1329.02h46.679a3.557 3.557 0 0 1 3.556 3.556 3.557 3.557 0 0 1-3.556 3.557h-46.68a3.557 3.557 0 0 1-3.556-3.557 3.557 3.557 0 0 1 3.557-3.557z" fill="#a1d6ce" fill-rule="evenodd" data-name="Rectangle 34"/><path d="M384.946 1317.793c-4.65 8.093-10.5 11.218-10.5 11.218h-24.333s38.38-17.393 34.833-11.218Z" fill="#252535" fill-rule="evenodd" data-name="Path 104"/><path d="M366.257 1380.415c-.634.727-.715 1.539-.4 2.406a.02.02 0 0 0 .005.013c.58 1.603 2.498 3.394 4.725 5.182.285.23.538.44.759.633.057.05.115.101.17.153.045.039.088.08.13.118 2.078 1.914 1.296 2.353 5.027 6.238 4.255 4.426 7.184 4.506 8.017 4.103.705-.343-.727-2.692-2.314-5.33-.077-.128-.152-.256-.231-.385-.212-.35-.421-.707-.631-1.06-1.86-3.176-1.383-4.666-.942-9.392.358-3.841 5.975-21.457 5.975-21.457l-8.153-1.405s-2.455 14.028-5.16 16.188c-1.447 1.152-3.067 1.166-4.456 2.02-.1.06-.195.12-.29.183-.79.523-1.595 1.064-2.23 1.792Z" fill="#ffb27d" fill-rule="evenodd" data-name="Path 105"/><path d="M366.257 1380.416c-.634.727-.715 1.539-.4 2.406a.02.02 0 0 0 .005.012c.71 1.602 2.58 3.384 4.733 5.167.281.233.53.448.75.648.058.051.116.102.17.153l.132.118c2.077 1.915 1.295 2.353 5.026 6.238 4.255 4.427 7.184 4.506 8.017 4.104.705-.344-.727-2.692-2.314-5.33-.828-.304-4.675-1.867-7.584-5.59-2.562-3.268-4.27-7.469-6.014-9.902-.1.06-.195.12-.29.183-.79.524-1.595 1.064-2.23 1.793Z" fill="#2f2e41" fill-rule="evenodd" data-name="Path 106"/><path d="M432 1375.323c.504 2.517 4.091 2.097 8.1 1.118 4.007-.98 3.055.185 8.76-.446 5.703-.632 7.431-2.759 7.605-3.607.156-.753-2.663-1.018-5.686-1.367-.38-.042-.762-.09-1.144-.136-3.413-.429-5.913-2.631-9.013-4.44-2.937-1.713-7.32-8.694-7.32-8.694l-7.823.62s4.106 6.234 5.694 8.946c.933 1.594.884 3.702.767 5.33-.06.885-.118 1.79.06 2.676Z" fill="#ffb27d" fill-rule="evenodd" data-name="Path 107"/><path d="M440.1 1376.44c4.007-.979 3.054.186 8.759-.445 5.704-.632 7.432-2.759 7.606-3.607.156-.753-2.663-1.018-5.686-1.367l-.028.058s-3.421 2.426-8.17 2.54c-3.87.094-7.968-1.015-10.64-.972-.061.885-.12 1.79.06 2.676.503 2.517 4.09 2.097 8.098 1.118Z" fill="#2f2e41" fill-rule="evenodd" data-name="Path 108"/><path d="m402.021 1325.303-7.313 19.678-9.547 25.694s-2.591.25-5.072-.464c-2.285-.66-4.905-2.388-4.905-2.388s2.65-27.588 7.596-43.425c1.267-4.064 2.688-7.352 4.255-9.203 7.667-9.06 14.986 10.108 14.986 10.108Z" fill="#252535" fill-rule="evenodd" data-name="Path 109"/><path d="M394.586 1294.05c-4.79-1.544-18.455.44-32.182 3.127l-2.874-4.74-29.648-2.316s-9.784 21.696-4.427 35.52c.786 2.033 2.35 3.335 5.017 3.378h.433s17.646-.01 23.376-.01c14.745 0 31.205-10.135 33.334-10.561 3.486-.698 4.88 6.273 8.365 13.592 3.485 7.32 32.762 32.413 32.762 32.413s4.499.045 6.358-.652c1.998-.75 2.73-1.724 2.73-1.724s-32.44-64.54-43.244-68.026Z" fill="#2f2e41" fill-rule="evenodd" data-name="Path 110"/><path d="M358.364 1206.105c-3.798-1.994-9.577-2.264-10.516-2.39-11.235-1.51-17.996 14.816-18.394 19.762-.733 9.118-5.557 10.508-12.346 16.218-13.613 11.45-9.621 24.754-2.177 29.698 4.466 2.966 12.338 0 12.338 0 .111.078 21.53-11.974 32.087-17.787 15.828-2.25 8.687-40.418-.992-45.5Z" fill="#0f253a" fill-rule="evenodd" data-name="Path 111"/><path d="M350.507 1246.658c.047.03-5.194 1.82-8.699.267-3.297-1.457-5.794-6.88-5.746-6.884 1.5-.069 3.147-1.38 4.415-9.984l.639.23 10.737 3.863s-.777 3.445-1.28 6.726c-.424 2.754-.652 5.393-.066 5.782Z" fill="#ffb27d" fill-rule="evenodd" data-name="Path 112"/><path d="M351.853 1234.15s-.778 3.445-1.281 6.726c-6.168-1.11-8.588-7.255-9.457-10.59l10.738 3.864Z" fill="#ed975d" fill-rule="evenodd" data-name="Path 113"/><path d="M353.452 1237.57s-14.691-1.972-13.322-11.102c1.369-9.13.394-15.534 9.832-14.66 9.438.872 10.733 4.629 11.018 7.788.284 3.158-3.671 18.252-7.528 17.974Z" fill="#ffb27d" fill-rule="evenodd" data-name="Path 114"/><path d="M360.445 1214.59s-9.405 8.105-15.802 8.759c-6.397.653-8.818-1.4-8.818-1.4s3.77-3.131 6.04-8.184a4.498 4.498 0 0 1 3.707-2.65c4.568-.395 13.227-.575 14.873 3.476Z" fill="#0f253a" fill-rule="evenodd" data-name="Path 115"/><path d="M354.566 1213.865s3.146 3.042 4.137 5.298c.956 2.178 1.243 7.385.481 9.454 0 0 4.902-9.532 2.127-14.163-2.943-4.911-6.745-.589-6.745-.589Z" fill="#0f253a" fill-rule="evenodd" data-name="Path 116"/><path d="M362.878 1268.3c-.444 29.738-.122 23.524-3.375 26.346-.784.68-2.987 1.084-5.888 1.276-9.119.605-25.148-.897-25.758-2.583-2.103-5.83-.618-7.642-2.373-16.57-.183-.949-.41-1.977-.675-3.095-1.463-6.132-2.888-8.218 2.303-18.069 4.708-8.922 9.598-16.164 10.038-15.903 12.42 7.372 13.421 1.176 13.421 1.176s12.525 12.916 12.307 27.422Z" fill="#fff" fill-rule="evenodd" data-name="Path 117"/><path d="m394.708 1344.981-9.547 25.694s-2.591.25-5.072-.464c-2.285-.66-4.905-2.387-4.905-2.387s2.65-27.589 7.596-43.425l11.928 20.582Z" fill="#2f2e41" fill-rule="evenodd" data-name="Path 118"/><path d="M350.572 1240.876s12.78 2.166 14.28 7.669c1.5 5.502 10.331 37.849 10.331 37.849s-6.496 1.167-9.497-1.835c-3.001-3-10.443-27.844-10.443-27.844l-4.671-15.84Z" fill="#fff" fill-rule="evenodd" data-name="Path 119"/><path d="M353.615 1295.922c-9.119.605-25.148-.897-25.758-2.583-2.103-5.83-.618-7.642-2.373-16.57l4.398-12.384s-.727 13.791 3.34 17.419c4.063 3.627 16.653 7.002 18.63 10.033.953 1.455 1.58 2.913 1.763 4.085Z" fill="#ebf3ff" fill-rule="evenodd" data-name="Path 120"/><path d="M343.167 1290.12s8.997-2.002 10.448-1.204c1.452.799 5 3.706 5.443 4.718.445 1.012-3.23-.768-4.427-1.088-.774-.208-2.812.5-3.821.836-4.246 1.416-6.848.688-6.848.688l-.795-3.95Z" fill="#ffb27d" fill-rule="evenodd" data-name="Path 121"/><path d="M337.143 1239.695s-12.08.744-16.262 6.576c-5.886 8.211-17.564 43.2-10.871 47.867 7.536 5.256 34.3 1.375 34.3 1.375s.892-4.163-.348-6.177c-1.239-2.014-21.377-5.267-22.306-6.196-.93-.93 11.618-18.124 11.618-20.912 0-2.79 3.869-22.533 3.869-22.533Z" fill="#fff" fill-rule="evenodd" data-name="Path 122"/><path d="M354.05 1291.42s1.886 2.432 2.504 2.722c.618.29 1.017.218 1.017.218l-1.27-2.287-2.25-.653Z" fill="#ffb27d" fill-rule="evenodd" data-name="Path 123"/><path d="m353.615 1288.916 5.48 2.662s-.232.381-.907.35c-.675-.03-2.377-.653-2.377-.653l-2.196-2.359Z" fill="#ffb27d" fill-rule="evenodd" data-name="Path 124"/><path d="M356.554 1297.867h43.352l13.04-32.43h-43.284l-13.108 32.43Z" fill="#4fa39b" fill-rule="evenodd" data-name="Path 125"/><path d="M400.414 1296.603h-57.247v1.264h56.739l.508-1.264Z" fill="#438982" fill-rule="evenodd" data-name="Path 126"/><path d="M388.962 1281.652c.327-1.14-.332-2.064-1.472-2.064s-2.33.924-2.656 2.064c-.327 1.14.332 2.064 1.472 2.064s2.33-.924 2.656-2.064Z" fill="#fff" fill-rule="evenodd" data-name="Path 127"/><g data-name="Group 21"><g data-name="Group 19"><path d="M582.976 1401.072h.127c.742 0 1.34-.647 1.323-1.433l-2.007-92.06-5.91-.73 5.04 92.797c.044.8.67 1.426 1.427 1.426Z" fill="#539692" fill-rule="evenodd" data-name="Path 128"/></g><g data-name="Group 20"><path d="M343.383 1401.072h-.127c-.742 0-1.34-.647-1.322-1.433l2.006-92.06 5.91-.73-5.04 92.797c-.044.8-.67 1.426-1.427 1.426Z" fill="#539692" fill-rule="evenodd" data-name="Path 129"/></g><path d="M339.062 1298.163h249.226a5.554 5.554 0 0 1 5.554 5.555 5.554 5.554 0 0 1-5.554 5.554H339.062a5.554 5.554 0 0 1-5.554-5.554 5.554 5.554 0 0 1 5.554-5.555z" fill="#539692" fill-rule="evenodd" data-name="Rectangle 35"/></g><path d="M280.794 1140.382c-.955-23.638 18.857-34.14 39.115-34.14 20.259 0 42.305 5.25 44.215 36.681 1.228 20.222-9.551 32.664-40.59 32.664-10.47 0-18.605-1.651-24.837-4.596l-15.516 13.787 7.625-19.057c-6.754-6.28-9.6-15.138-10.012-25.339Z" fill="#b5e2de" fill-rule="evenodd" data-name="Path 130"/><path d="M742.596 1400.971s.57-4.44 1.89-7.08c1.32-2.64 9.722-.96 9.722-.96s1.68 1.44 2.04 8.16l-13.652-.12Z" fill="#252535" fill-rule="evenodd" data-name="Path 131"/><path d="M713.974 1400.911c1.974-1.205.85-10.193.85-10.193s-9.197-7.358-10.462-1.725c-1.265 5.634-8.739 8.164-12.993 8.854-2.936.476-3.846 2.103-4.127 3.064h26.732Z" fill="#252535" fill-rule="evenodd" data-name="Path 132"/><path d="M733.027 1335.536c-.375 2.063-.612 3.756-.675 4.969-.855 16.679-14.04 54.814-16.398 55.704-3.65 1.377-9.395-1.55-12.402-2.508-1.245-.398-2.086-1.654-1.81-2.929 6.53-30.016 8.93-73.24 9.803-98.83.441-12.889 2.654-21.793 2.654-21.793s32.157-8.58 32.347 2.274c.17 9.604-10.651 47.27-13.52 63.113Z" fill="#2f2e41" fill-rule="evenodd" data-name="Path 133"/><path d="m733.026 1335.536-21.481-43.593c.44-12.89 2.654-21.794 2.654-21.794s32.156-8.58 32.347 2.274c.17 9.604-10.652 47.27-13.52 63.113Z" fill="#252535" fill-rule="evenodd" data-name="Path 134"/><path d="m725.872 1272.461 17 123.208s7.465 1.8 13.27.36c0 0 4.978-65.527 4.563-81.37-.415-15.841 3.572-42.39-.91-45.317-4.481-2.928-33.923 3.12-33.923 3.12Z" fill="#2f2e41" fill-rule="evenodd" data-name="Path 135"/><path d="M763.109 1270.408a2.36 2.36 0 0 1-1.703 2.438c-2.372.688-5.104 1.166-10.378 2.259-4.953 1.029-11.616 1.94-19.803 1.99-13.021.083-17.952-4.406-17.952-4.406-.56.01.297-2.715 1.069-15.673.262-4.39.514-9.953.696-16.985.165-6.327.276-13.844.286-22.762.014-10.727 16.618-22.268 16.925-22.268l.003.005c0 1.545 2.435 4.395 6.184 4.64 4.45.292 9.91-1.923 9.91-4.486 0-.026 8.044 12.87 10.902 26.61 1.443 6.916.859 6.73 3.86 48.638Z" fill="#fff" fill-rule="evenodd" data-name="Path 136"/><path d="M732.25 1195.002s-15.441-.131-19.157 5.08c-3.716 5.212-11.864 33.247-7.612 42.576 4.252 9.328 12.207-3.86 16.622-9.573 4.416-5.714 10.146-38.083 10.146-38.083Z" fill="#fff" fill-rule="evenodd" data-name="Path 137"/><path d="m732.091 1192.645.009 1.596s-.435 4.992 5.712 5.72c6.147.732 10.708-.931 10.541-4.783-.553-2.983-1.067-6.045-1.107-8.513-.015-.917.048-1.89.218-2.989l-11.91-.238-3.509.573.046 8.634Z" fill="#ffb27d" fill-rule="evenodd" data-name="Path 138"/><path d="m732.045 1184.011.046 8.634a10.07 10.07 0 0 0 4.293.948c5.475 0 9.013-4.015 10.862-6.928-.015-.917.048-1.89.218-2.989l-11.91-.238-3.509.573Z" fill="#e2915a" fill-rule="evenodd" data-name="Path 139"/><path d="M748.377 1181.76c-1.382 7.437-10.979 7.192-15.126 6.725-1.167-.13-1.901-.279-1.901-.279-1.316-.351-2.05-2.424-2.392-5.14-.677-5.372.179-13.26 1.086-15.277 1.366-3.036 3.94-6.319 13.604-3.95 9.666 2.37 6.502 8.391 4.729 17.92Z" fill="#ffb27d" fill-rule="evenodd" data-name="Path 140"/><path d="M716.46 1215.895s-5.972 13.188-5.798 17.141c0 0 2.957-.101 5.797.745 4.67 1.392 0-17.886 0-17.886Z" fill="#ebf3ff" fill-rule="evenodd" data-name="Path 141"/><path d="M727.079 1160.71s4.254-.328 9.27-2.509c4.073-1.77 9.21.18 10.878 1.058a2.483 2.483 0 0 0-.407-1.003s.75.53.86 1.273c.077.057.111.096.091.109 0 0 .849-.155 1.394.09 0 0-.381-.054-.517.19a.232.232 0 0 1-.061.068c6.351 3.07 6.938 13.11 4.894 15.432-2.46 2.795-6.173 9.119-6.173 9.119s-.311-1.517.137-3.976c.447-2.46-1.677-2.46-4.36-3.578-2.683-1.118-.447-4.248-2.796-6.148-2.346-1.901-10.955-.783-10.843-2.236-3.195-1.164-2.367-7.562-2.367-7.89Z" fill="#252535" fill-rule="evenodd" data-name="Path 142"/><path d="M750.323 1240.6c-2.52 10.122-29.784 15.353-35.98 16.416.26-4.39.513-9.953.696-16.985l35.284.568Z" fill="#ebf3ff" fill-rule="evenodd" data-name="Path 143"/><path d="M744.338 1243.89c.26 0 6.06-.866 7.1-1.386 1.039-.52 5.79-7.273 2.679-9.004-3.112-1.732-11.466 5.194-11.466 5.194l1.687 5.195Z" fill="#ffb27d" fill-rule="evenodd" data-name="Path 144"/><path d="M709.056 1245.896s22.436 1.217 37.492-2.007c0 0 .38-4.35-4.352-6.281 0 0-23.466-4.974-29.103-3.589-5.638 1.386-4.037 11.877-4.037 11.877Z" fill="#fff" fill-rule="evenodd" data-name="Path 145"/><path d="M760.58 1228.289c-4.657 5.614-10.744 10.198-17.453 11.271l-.002-.002c-.056-.084-2.032-3.084-1.66-7.493.17-2.039.845-4.382 2.442-6.877.492-.767.93-1.664 1.32-2.66 3.664-9.349 3.119-27.368 3.119-27.368s15.56 1.63 20.408 8.556c2.97 4.242-.817 15.697-8.175 24.573Z" fill="#fff" fill-rule="evenodd" data-name="Path 146"/><path d="M733.25 1188.485c-1.166-.13-1.9-.279-1.9-.279-1.316-.351-2.05-2.424-2.392-5.14 2.468.608 3.599 2.515 4.07 3.327.212.366.255 1.184.223 2.092Z" fill="#e2915a" fill-rule="evenodd" data-name="Path 147"/><path d="M726.982 1192.692s-5.374-8.868-1.195-9.254c4.18-.386 5.858 2.442 6.462 3.482.603 1.038-.158 5.725-.158 5.725l-5.109.047Z" fill="#ffb27d" fill-rule="evenodd" data-name="Path 148"/><path d="M747.464 1231.768a11.554 11.554 0 0 1-.916 3.079c-1.313 2.914-3.422 4.713-3.422 4.713l-.001-.002c-13.957-6.299-16.781-27.932-17.254-39.817-.19-4.778 0-7.981 0-7.981 6.296-2.085 8.066 1.537 8.066 1.537s7.433 17.678 11.29 29.231c1.475 4.421 2.426 7.947 2.237 9.24Z" fill="#fff" fill-rule="evenodd" data-name="Path 149"/><path d="M760.58 1228.29c-4.657 5.613-10.744 10.197-17.454 11.27l-.001-.002c-13.957-6.299-16.781-27.932-17.254-39.817 0 0 6.604 23.953 15.593 32.325 1.624 1.515 3.328 2.52 5.084 2.78 0 0 11.335-3.202 13.712-6.219.17-.216.274-.324.32-.338Z" fill="#ebf3ff" fill-rule="evenodd" data-name="Path 150"/><path d="M506.375 1298.164h-43.352l-13.041-32.43h43.285l13.108 32.43Z" fill="#4fa39b" fill-rule="evenodd" data-name="Path 151"/><path d="M462.515 1296.9h57.246v1.263h-56.738l-.508-1.263Z" fill="#438982" fill-rule="evenodd" data-name="Path 152"/><path d="M473.967 1281.949c-.328-1.14.332-2.065 1.472-2.065s2.328.924 2.656 2.065c.327 1.14-.333 2.064-1.473 2.064-1.14 0-2.329-.924-2.655-2.064Z" fill="#fff" fill-rule="evenodd" data-name="Path 153"/></g></svg>